# xmcd
# 
# Track frame offsets:
#     150
#     10003
#     24293
#     36437
#     50042
#     62870
#     76072
#     88276
#     100869
#     113273
#     122967
#     136867
#     146988
#     157138
#     169846
#     183320
#     195828
#     206251
#     217848
#     230313
#     241437
#     251613
# 
# Disc length: 3489
# 
# Revision: 3
# Processed by: cddbd v1.5.2PL0 Copyright (c) Steve Scherf et al.
# Submitted via: fre:ac v1.0.31
# 
DISCID=270d9f16
DTITLE=Vee - Jay - Vee-Jay:  The Definitive Collection Disc 2
DYEAR=2007
DGENRE=R&B
TTITLE0=John Lee Hooker - Dimples
TTITLE1=Pee Wee Crayton - The Telephone is Ringing
TTITLE2=Snooky Pryor - Judgment Day
TTITLE3=The Staple Singers - Uncloudy Day
TTITLE4=Sonny Til's Orioles - For All We Know
TTITLE5=The Delegates - Mother's Son
TTITLE6=Billy Emerson - The Pleasures All Mine
TTITLE7=Jimmy Reed - Honest I Do
TTITLE8=The Harmonizing Four - Farther Along
TTITLE9=Gene Allison - You Can Make it If You Try
TTITLE10=Elmore James - It Hurts Me Too
TTITLE11=Hank Ballard and The Midnighters - The Twist
TTITLE12=Priscilla Bowman with The Spaniels - A Rockin' Good Way
TTITLE13=Lee Diamond and The Upsetters - Hattie Malatti
TTITLE14=Bobby Parker - Blues Get Off My Shoulder
TTITLE15=Jerry Butler and The Impressions - For Your Precious Love
TTITLE16=Leonard Carbo - Pigtails and Blue Jeans
TTITLE17=John Lee Hooker - I Love You Honey
TTITLE18=The Original 5 Blind Boys Of Mississippi - Leave You in the Hands of the Lord
TTITLE19=Dee Clark - Nobobdy But You
TTITLE20=Sheriff and Ravels - Shambalor
TTITLE21=Harold Burrage - Crying for My Baby
EXTD=
EXTT0=
EXTT1=
EXTT2=
EXTT3=
EXTT4=
EXTT5=
EXTT6=
EXTT7=
EXTT8=
EXTT9=
EXTT10=
EXTT11=
EXTT12=
EXTT13=
EXTT14=
EXTT15=
EXTT16=
EXTT17=
EXTT18=
EXTT19=
EXTT20=
EXTT21=
PLAYORDER=
